<?xml version="1.0" encoding="UTF-8" standalone="no"?>
<!DOCTYPE svg PUBLIC "-//W3C//DTD SVG 1.1//EN"
 "http://www.w3.org/Graphics/SVG/1.1/DTD/svg11.dtd">
<!-- Generated by graphviz version 2.43.0 (0)
 -->
<!-- Title: controllers_diagram Pages: 1 -->
<svg width="1002pt" height="1083pt"
 viewBox="0.00 0.00 1002.00 1083.00" xmlns="http://www.w3.org/2000/svg" xmlns:xlink="http://www.w3.org/1999/xlink">
<g id="graph0" class="graph" transform="scale(1 1) rotate(0) translate(4 1079)">
<title>controllers_diagram</title>
<polygon fill="transparent" stroke="transparent" points="-4,4 -4,-1079 998,-1079 998,4 -4,4"/>
<!-- _diagram_info -->
<g id="node1" class="node">
<title>_diagram_info</title>
<text text-anchor="start" x="743" y="-189.6" font-family="Times,serif" font-size="13.00">Controllers diagram</text>
<text text-anchor="start" x="743" y="-175.6" font-family="Times,serif" font-size="13.00">Date: May 18 2022 &#45; 05:43</text>
<text text-anchor="start" x="743" y="-161.6" font-family="Times,serif" font-size="13.00">Migration version: 20220516103212</text>
<text text-anchor="start" x="743" y="-147.6" font-family="Times,serif" font-size="13.00">Generated by RailRoady 1.6.0</text>
<text text-anchor="start" x="743" y="-133.6" font-family="Times,serif" font-size="13.00">http://railroady.prestonlee.com</text>
</g>
<!-- EmployeesController -->
<g id="node2" class="node">
<title>EmployeesController</title>
<path fill="none" stroke="black" d="M138,-420.5C138,-420.5 281,-420.5 281,-420.5 287,-420.5 293,-426.5 293,-432.5 293,-432.5 293,-621.5 293,-621.5 293,-627.5 287,-633.5 281,-633.5 281,-633.5 138,-633.5 138,-633.5 132,-633.5 126,-627.5 126,-621.5 126,-621.5 126,-432.5 126,-432.5 126,-426.5 132,-420.5 138,-420.5"/>
<text text-anchor="middle" x="209.5" y="-618.3" font-family="Times,serif" font-size="14.00">EmployeesController</text>
<polyline fill="none" stroke="black" points="126,-610.5 293,-610.5 "/>
<text text-anchor="start" x="134" y="-595.3" font-family="Times,serif" font-size="14.00">create</text>
<text text-anchor="start" x="134" y="-580.3" font-family="Times,serif" font-size="14.00">destroy</text>
<text text-anchor="start" x="134" y="-565.3" font-family="Times,serif" font-size="14.00">edit</text>
<text text-anchor="start" x="134" y="-550.3" font-family="Times,serif" font-size="14.00">index</text>
<text text-anchor="start" x="134" y="-535.3" font-family="Times,serif" font-size="14.00">new</text>
<text text-anchor="start" x="134" y="-520.3" font-family="Times,serif" font-size="14.00">show</text>
<text text-anchor="start" x="134" y="-505.3" font-family="Times,serif" font-size="14.00">update</text>
<polyline fill="none" stroke="black" points="126,-497.5 293,-497.5 "/>
<polyline fill="none" stroke="black" points="126,-473.5 293,-473.5 "/>
<text text-anchor="start" x="134" y="-458.3" font-family="Times,serif" font-size="14.00">_layout</text>
<text text-anchor="start" x="134" y="-443.3" font-family="Times,serif" font-size="14.00">employee_params</text>
<text text-anchor="start" x="134" y="-428.3" font-family="Times,serif" font-size="14.00">set_employee</text>
</g>
<!-- ClassTypesController -->
<g id="node3" class="node">
<title>ClassTypesController</title>
<path fill="none" stroke="black" d="M348,-252.5C348,-252.5 496,-252.5 496,-252.5 502,-252.5 508,-258.5 508,-264.5 508,-264.5 508,-588.5 508,-588.5 508,-594.5 502,-600.5 496,-600.5 496,-600.5 348,-600.5 348,-600.5 342,-600.5 336,-594.5 336,-588.5 336,-588.5 336,-264.5 336,-264.5 336,-258.5 342,-252.5 348,-252.5"/>
<text text-anchor="middle" x="422" y="-585.3" font-family="Times,serif" font-size="14.00">ClassTypesController</text>
<polyline fill="none" stroke="black" points="336,-577.5 508,-577.5 "/>
<text text-anchor="start" x="344" y="-562.3" font-family="Times,serif" font-size="14.00">addanimal</text>
<text text-anchor="start" x="344" y="-547.3" font-family="Times,serif" font-size="14.00">addsubject</text>
<text text-anchor="start" x="344" y="-532.3" font-family="Times,serif" font-size="14.00">addtutor</text>
<text text-anchor="start" x="344" y="-517.3" font-family="Times,serif" font-size="14.00">create</text>
<text text-anchor="start" x="344" y="-502.3" font-family="Times,serif" font-size="14.00">destroy</text>
<text text-anchor="start" x="344" y="-487.3" font-family="Times,serif" font-size="14.00">edit</text>
<text text-anchor="start" x="344" y="-472.3" font-family="Times,serif" font-size="14.00">index</text>
<text text-anchor="start" x="344" y="-457.3" font-family="Times,serif" font-size="14.00">new</text>
<text text-anchor="start" x="344" y="-442.3" font-family="Times,serif" font-size="14.00">removeanimal</text>
<text text-anchor="start" x="344" y="-427.3" font-family="Times,serif" font-size="14.00">removesubject</text>
<text text-anchor="start" x="344" y="-412.3" font-family="Times,serif" font-size="14.00">removetutor</text>
<text text-anchor="start" x="344" y="-397.3" font-family="Times,serif" font-size="14.00">show</text>
<text text-anchor="start" x="344" y="-382.3" font-family="Times,serif" font-size="14.00">update</text>
<polyline fill="none" stroke="black" points="336,-374.5 508,-374.5 "/>
<polyline fill="none" stroke="black" points="336,-350.5 508,-350.5 "/>
<text text-anchor="start" x="344" y="-335.3" font-family="Times,serif" font-size="14.00">_layout</text>
<text text-anchor="start" x="344" y="-320.3" font-family="Times,serif" font-size="14.00">class_type_params</text>
<text text-anchor="start" x="344" y="-305.3" font-family="Times,serif" font-size="14.00">set_class_and_animal</text>
<text text-anchor="start" x="344" y="-290.3" font-family="Times,serif" font-size="14.00">set_class_and_subject</text>
<text text-anchor="start" x="344" y="-275.3" font-family="Times,serif" font-size="14.00">set_class_and_tutor</text>
<text text-anchor="start" x="344" y="-260.3" font-family="Times,serif" font-size="14.00">set_class_type</text>
</g>
<!-- TrainersController -->
<g id="node4" class="node">
<title>TrainersController</title>
<path fill="none" stroke="black" d="M411,-651.5C411,-651.5 536,-651.5 536,-651.5 542,-651.5 548,-657.5 548,-663.5 548,-663.5 548,-882.5 548,-882.5 548,-888.5 542,-894.5 536,-894.5 536,-894.5 411,-894.5 411,-894.5 405,-894.5 399,-888.5 399,-882.5 399,-882.5 399,-663.5 399,-663.5 399,-657.5 405,-651.5 411,-651.5"/>
<text text-anchor="middle" x="473.5" y="-879.3" font-family="Times,serif" font-size="14.00">TrainersController</text>
<polyline fill="none" stroke="black" points="399,-871.5 548,-871.5 "/>
<text text-anchor="start" x="407" y="-856.3" font-family="Times,serif" font-size="14.00">addsubject</text>
<text text-anchor="start" x="407" y="-841.3" font-family="Times,serif" font-size="14.00">create</text>
<text text-anchor="start" x="407" y="-826.3" font-family="Times,serif" font-size="14.00">destroy</text>
<text text-anchor="start" x="407" y="-811.3" font-family="Times,serif" font-size="14.00">edit</text>
<text text-anchor="start" x="407" y="-796.3" font-family="Times,serif" font-size="14.00">index</text>
<text text-anchor="start" x="407" y="-781.3" font-family="Times,serif" font-size="14.00">new</text>
<text text-anchor="start" x="407" y="-766.3" font-family="Times,serif" font-size="14.00">removesubject</text>
<text text-anchor="start" x="407" y="-751.3" font-family="Times,serif" font-size="14.00">show</text>
<text text-anchor="start" x="407" y="-736.3" font-family="Times,serif" font-size="14.00">update</text>
<polyline fill="none" stroke="black" points="399,-728.5 548,-728.5 "/>
<polyline fill="none" stroke="black" points="399,-704.5 548,-704.5 "/>
<text text-anchor="start" x="407" y="-689.3" font-family="Times,serif" font-size="14.00">_layout</text>
<text text-anchor="start" x="407" y="-674.3" font-family="Times,serif" font-size="14.00">set_trainer</text>
<text text-anchor="start" x="407" y="-659.3" font-family="Times,serif" font-size="14.00">trainer_params</text>
</g>
<!-- MessagesController -->
<g id="node5" class="node">
<title>MessagesController</title>
<path fill="none" stroke="black" d="M138,-168.5C138,-168.5 274,-168.5 274,-168.5 280,-168.5 286,-174.5 286,-180.5 286,-180.5 286,-369.5 286,-369.5 286,-375.5 280,-381.5 274,-381.5 274,-381.5 138,-381.5 138,-381.5 132,-381.5 126,-375.5 126,-369.5 126,-369.5 126,-180.5 126,-180.5 126,-174.5 132,-168.5 138,-168.5"/>
<text text-anchor="middle" x="206" y="-366.3" font-family="Times,serif" font-size="14.00">MessagesController</text>
<polyline fill="none" stroke="black" points="126,-358.5 286,-358.5 "/>
<text text-anchor="start" x="134" y="-343.3" font-family="Times,serif" font-size="14.00">create</text>
<text text-anchor="start" x="134" y="-328.3" font-family="Times,serif" font-size="14.00">destroy</text>
<text text-anchor="start" x="134" y="-313.3" font-family="Times,serif" font-size="14.00">edit</text>
<text text-anchor="start" x="134" y="-298.3" font-family="Times,serif" font-size="14.00">index</text>
<text text-anchor="start" x="134" y="-283.3" font-family="Times,serif" font-size="14.00">new</text>
<text text-anchor="start" x="134" y="-268.3" font-family="Times,serif" font-size="14.00">show</text>
<text text-anchor="start" x="134" y="-253.3" font-family="Times,serif" font-size="14.00">update</text>
<polyline fill="none" stroke="black" points="126,-245.5 286,-245.5 "/>
<polyline fill="none" stroke="black" points="126,-221.5 286,-221.5 "/>
<text text-anchor="start" x="134" y="-206.3" font-family="Times,serif" font-size="14.00">_layout</text>
<text text-anchor="start" x="134" y="-191.3" font-family="Times,serif" font-size="14.00">message_params</text>
<text text-anchor="start" x="134" y="-176.3" font-family="Times,serif" font-size="14.00">set_message</text>
</g>
<!-- CertificatesController -->
<g id="node6" class="node">
<title>CertificatesController</title>
<path fill="none" stroke="black" d="M789,-609.5C789,-609.5 937,-609.5 937,-609.5 943,-609.5 949,-615.5 949,-621.5 949,-621.5 949,-810.5 949,-810.5 949,-816.5 943,-822.5 937,-822.5 937,-822.5 789,-822.5 789,-822.5 783,-822.5 777,-816.5 777,-810.5 777,-810.5 777,-621.5 777,-621.5 777,-615.5 783,-609.5 789,-609.5"/>
<text text-anchor="middle" x="863" y="-807.3" font-family="Times,serif" font-size="14.00">CertificatesController</text>
<polyline fill="none" stroke="black" points="777,-799.5 949,-799.5 "/>
<text text-anchor="start" x="785" y="-784.3" font-family="Times,serif" font-size="14.00">create</text>
<text text-anchor="start" x="785" y="-769.3" font-family="Times,serif" font-size="14.00">destroy</text>
<text text-anchor="start" x="785" y="-754.3" font-family="Times,serif" font-size="14.00">edit</text>
<text text-anchor="start" x="785" y="-739.3" font-family="Times,serif" font-size="14.00">index</text>
<text text-anchor="start" x="785" y="-724.3" font-family="Times,serif" font-size="14.00">new</text>
<text text-anchor="start" x="785" y="-709.3" font-family="Times,serif" font-size="14.00">show</text>
<text text-anchor="start" x="785" y="-694.3" font-family="Times,serif" font-size="14.00">update</text>
<polyline fill="none" stroke="black" points="777,-686.5 949,-686.5 "/>
<polyline fill="none" stroke="black" points="777,-662.5 949,-662.5 "/>
<text text-anchor="start" x="785" y="-647.3" font-family="Times,serif" font-size="14.00">_layout</text>
<text text-anchor="start" x="785" y="-632.3" font-family="Times,serif" font-size="14.00">certificate_params</text>
<text text-anchor="start" x="785" y="-617.3" font-family="Times,serif" font-size="14.00">set_certificate</text>
</g>
<!-- EmailsController -->
<g id="node7" class="node">
<title>EmailsController</title>
<path fill="none" stroke="black" d="M810,-252.5C810,-252.5 924,-252.5 924,-252.5 930,-252.5 936,-258.5 936,-264.5 936,-264.5 936,-453.5 936,-453.5 936,-459.5 930,-465.5 924,-465.5 924,-465.5 810,-465.5 810,-465.5 804,-465.5 798,-459.5 798,-453.5 798,-453.5 798,-264.5 798,-264.5 798,-258.5 804,-252.5 810,-252.5"/>
<text text-anchor="middle" x="867" y="-450.3" font-family="Times,serif" font-size="14.00">EmailsController</text>
<polyline fill="none" stroke="black" points="798,-442.5 936,-442.5 "/>
<text text-anchor="start" x="806" y="-427.3" font-family="Times,serif" font-size="14.00">create</text>
<text text-anchor="start" x="806" y="-412.3" font-family="Times,serif" font-size="14.00">destroy</text>
<text text-anchor="start" x="806" y="-397.3" font-family="Times,serif" font-size="14.00">edit</text>
<text text-anchor="start" x="806" y="-382.3" font-family="Times,serif" font-size="14.00">index</text>
<text text-anchor="start" x="806" y="-367.3" font-family="Times,serif" font-size="14.00">new</text>
<text text-anchor="start" x="806" y="-352.3" font-family="Times,serif" font-size="14.00">show</text>
<text text-anchor="start" x="806" y="-337.3" font-family="Times,serif" font-size="14.00">update</text>
<polyline fill="none" stroke="black" points="798,-329.5 936,-329.5 "/>
<polyline fill="none" stroke="black" points="798,-305.5 936,-305.5 "/>
<text text-anchor="start" x="806" y="-290.3" font-family="Times,serif" font-size="14.00">_layout</text>
<text text-anchor="start" x="806" y="-275.3" font-family="Times,serif" font-size="14.00">email_params</text>
<text text-anchor="start" x="806" y="-260.3" font-family="Times,serif" font-size="14.00">set_email</text>
</g>
<!-- AnimalsController -->
<g id="node8" class="node">
<title>AnimalsController</title>
<path fill="none" stroke="black" d="M852,-861.5C852,-861.5 974,-861.5 974,-861.5 980,-861.5 986,-867.5 986,-873.5 986,-873.5 986,-1062.5 986,-1062.5 986,-1068.5 980,-1074.5 974,-1074.5 974,-1074.5 852,-1074.5 852,-1074.5 846,-1074.5 840,-1068.5 840,-1062.5 840,-1062.5 840,-873.5 840,-873.5 840,-867.5 846,-861.5 852,-861.5"/>
<text text-anchor="middle" x="913" y="-1059.3" font-family="Times,serif" font-size="14.00">AnimalsController</text>
<polyline fill="none" stroke="black" points="840,-1051.5 986,-1051.5 "/>
<text text-anchor="start" x="848" y="-1036.3" font-family="Times,serif" font-size="14.00">create</text>
<text text-anchor="start" x="848" y="-1021.3" font-family="Times,serif" font-size="14.00">destroy</text>
<text text-anchor="start" x="848" y="-1006.3" font-family="Times,serif" font-size="14.00">edit</text>
<text text-anchor="start" x="848" y="-991.3" font-family="Times,serif" font-size="14.00">index</text>
<text text-anchor="start" x="848" y="-976.3" font-family="Times,serif" font-size="14.00">new</text>
<text text-anchor="start" x="848" y="-961.3" font-family="Times,serif" font-size="14.00">show</text>
<text text-anchor="start" x="848" y="-946.3" font-family="Times,serif" font-size="14.00">update</text>
<polyline fill="none" stroke="black" points="840,-938.5 986,-938.5 "/>
<polyline fill="none" stroke="black" points="840,-914.5 986,-914.5 "/>
<text text-anchor="start" x="848" y="-899.3" font-family="Times,serif" font-size="14.00">_layout</text>
<text text-anchor="start" x="848" y="-884.3" font-family="Times,serif" font-size="14.00">animal_params</text>
<text text-anchor="start" x="848" y="-869.3" font-family="Times,serif" font-size="14.00">set_animal</text>
</g>
<!-- ClassListsController -->
<g id="node9" class="node">
<title>ClassListsController</title>
<path fill="none" stroke="black" d="M558,-315.5C558,-315.5 738,-315.5 738,-315.5 744,-315.5 750,-321.5 750,-327.5 750,-327.5 750,-561.5 750,-561.5 750,-567.5 744,-573.5 738,-573.5 738,-573.5 558,-573.5 558,-573.5 552,-573.5 546,-567.5 546,-561.5 546,-561.5 546,-327.5 546,-327.5 546,-321.5 552,-315.5 558,-315.5"/>
<text text-anchor="middle" x="648" y="-558.3" font-family="Times,serif" font-size="14.00">ClassListsController</text>
<polyline fill="none" stroke="black" points="546,-550.5 750,-550.5 "/>
<text text-anchor="start" x="554" y="-535.3" font-family="Times,serif" font-size="14.00">add_student</text>
<text text-anchor="start" x="554" y="-520.3" font-family="Times,serif" font-size="14.00">create</text>
<text text-anchor="start" x="554" y="-505.3" font-family="Times,serif" font-size="14.00">destroy</text>
<text text-anchor="start" x="554" y="-490.3" font-family="Times,serif" font-size="14.00">edit</text>
<text text-anchor="start" x="554" y="-475.3" font-family="Times,serif" font-size="14.00">index</text>
<text text-anchor="start" x="554" y="-460.3" font-family="Times,serif" font-size="14.00">new</text>
<text text-anchor="start" x="554" y="-445.3" font-family="Times,serif" font-size="14.00">remove_student</text>
<text text-anchor="start" x="554" y="-430.3" font-family="Times,serif" font-size="14.00">show</text>
<text text-anchor="start" x="554" y="-415.3" font-family="Times,serif" font-size="14.00">update</text>
<polyline fill="none" stroke="black" points="546,-407.5 750,-407.5 "/>
<polyline fill="none" stroke="black" points="546,-383.5 750,-383.5 "/>
<text text-anchor="start" x="554" y="-368.3" font-family="Times,serif" font-size="14.00">_layout</text>
<text text-anchor="start" x="554" y="-353.3" font-family="Times,serif" font-size="14.00">class_list_params</text>
<text text-anchor="start" x="554" y="-338.3" font-family="Times,serif" font-size="14.00">set_class_list</text>
<text text-anchor="start" x="554" y="-323.3" font-family="Times,serif" font-size="14.00">set_student_and_class_list</text>
</g>
<!-- GradesController -->
<g id="node10" class="node">
<title>GradesController</title>
<path fill="none" stroke="black" d="M348,-21.5C348,-21.5 464,-21.5 464,-21.5 470,-21.5 476,-27.5 476,-33.5 476,-33.5 476,-207.5 476,-207.5 476,-213.5 470,-219.5 464,-219.5 464,-219.5 348,-219.5 348,-219.5 342,-219.5 336,-213.5 336,-207.5 336,-207.5 336,-33.5 336,-33.5 336,-27.5 342,-21.5 348,-21.5"/>
<text text-anchor="middle" x="406" y="-204.3" font-family="Times,serif" font-size="14.00">GradesController</text>
<polyline fill="none" stroke="black" points="336,-196.5 476,-196.5 "/>
<text text-anchor="start" x="344" y="-181.3" font-family="Times,serif" font-size="14.00">create</text>
<text text-anchor="start" x="344" y="-166.3" font-family="Times,serif" font-size="14.00">destroy</text>
<text text-anchor="start" x="344" y="-151.3" font-family="Times,serif" font-size="14.00">edit</text>
<text text-anchor="start" x="344" y="-136.3" font-family="Times,serif" font-size="14.00">new</text>
<text text-anchor="start" x="344" y="-121.3" font-family="Times,serif" font-size="14.00">show</text>
<text text-anchor="start" x="344" y="-106.3" font-family="Times,serif" font-size="14.00">update</text>
<polyline fill="none" stroke="black" points="336,-98.5 476,-98.5 "/>
<polyline fill="none" stroke="black" points="336,-74.5 476,-74.5 "/>
<text text-anchor="start" x="344" y="-59.3" font-family="Times,serif" font-size="14.00">_layout</text>
<text text-anchor="start" x="344" y="-44.3" font-family="Times,serif" font-size="14.00">grade_params</text>
<text text-anchor="start" x="344" y="-29.3" font-family="Times,serif" font-size="14.00">set_grade</text>
</g>
<!-- ApplicationController -->
<g id="node11" class="node">
<title>ApplicationController</title>
<path fill="none" stroke="black" d="M33,-42.5C33,-42.5 179,-42.5 179,-42.5 185,-42.5 191,-48.5 191,-54.5 191,-54.5 191,-124.5 191,-124.5 191,-130.5 185,-136.5 179,-136.5 179,-136.5 33,-136.5 33,-136.5 27,-136.5 21,-130.5 21,-124.5 21,-124.5 21,-54.5 21,-54.5 21,-48.5 27,-42.5 33,-42.5"/>
<text text-anchor="middle" x="106" y="-121.3" font-family="Times,serif" font-size="14.00">ApplicationController</text>
<polyline fill="none" stroke="black" points="21,-113.5 191,-113.5 "/>
<polyline fill="none" stroke="black" points="21,-89.5 191,-89.5 "/>
<polyline fill="none" stroke="black" points="21,-65.5 191,-65.5 "/>
<text text-anchor="start" x="29" y="-50.3" font-family="Times,serif" font-size="14.00">_layout</text>
</g>
<!-- StudentsController -->
<g id="node12" class="node">
<title>StudentsController</title>
<path fill="none" stroke="black" d="M558,-63.5C558,-63.5 688,-63.5 688,-63.5 694,-63.5 700,-69.5 700,-75.5 700,-75.5 700,-264.5 700,-264.5 700,-270.5 694,-276.5 688,-276.5 688,-276.5 558,-276.5 558,-276.5 552,-276.5 546,-270.5 546,-264.5 546,-264.5 546,-75.5 546,-75.5 546,-69.5 552,-63.5 558,-63.5"/>
<text text-anchor="middle" x="623" y="-261.3" font-family="Times,serif" font-size="14.00">StudentsController</text>
<polyline fill="none" stroke="black" points="546,-253.5 700,-253.5 "/>
<text text-anchor="start" x="554" y="-238.3" font-family="Times,serif" font-size="14.00">create</text>
<text text-anchor="start" x="554" y="-223.3" font-family="Times,serif" font-size="14.00">destroy</text>
<text text-anchor="start" x="554" y="-208.3" font-family="Times,serif" font-size="14.00">edit</text>
<text text-anchor="start" x="554" y="-193.3" font-family="Times,serif" font-size="14.00">index</text>
<text text-anchor="start" x="554" y="-178.3" font-family="Times,serif" font-size="14.00">new</text>
<text text-anchor="start" x="554" y="-163.3" font-family="Times,serif" font-size="14.00">show</text>
<text text-anchor="start" x="554" y="-148.3" font-family="Times,serif" font-size="14.00">update</text>
<polyline fill="none" stroke="black" points="546,-140.5 700,-140.5 "/>
<polyline fill="none" stroke="black" points="546,-116.5 700,-116.5 "/>
<text text-anchor="start" x="554" y="-101.3" font-family="Times,serif" font-size="14.00">_layout</text>
<text text-anchor="start" x="554" y="-86.3" font-family="Times,serif" font-size="14.00">set_student</text>
<text text-anchor="start" x="554" y="-71.3" font-family="Times,serif" font-size="14.00">student_params</text>
</g>
<!-- ClassRoomsController -->
<g id="node13" class="node">
<title>ClassRoomsController</title>
<path fill="none" stroke="black" d="M201,-672.5C201,-672.5 353,-672.5 353,-672.5 359,-672.5 365,-678.5 365,-684.5 365,-684.5 365,-873.5 365,-873.5 365,-879.5 359,-885.5 353,-885.5 353,-885.5 201,-885.5 201,-885.5 195,-885.5 189,-879.5 189,-873.5 189,-873.5 189,-684.5 189,-684.5 189,-678.5 195,-672.5 201,-672.5"/>
<text text-anchor="middle" x="277" y="-870.3" font-family="Times,serif" font-size="14.00">ClassRoomsController</text>
<polyline fill="none" stroke="black" points="189,-862.5 365,-862.5 "/>
<text text-anchor="start" x="197" y="-847.3" font-family="Times,serif" font-size="14.00">create</text>
<text text-anchor="start" x="197" y="-832.3" font-family="Times,serif" font-size="14.00">destroy</text>
<text text-anchor="start" x="197" y="-817.3" font-family="Times,serif" font-size="14.00">edit</text>
<text text-anchor="start" x="197" y="-802.3" font-family="Times,serif" font-size="14.00">index</text>
<text text-anchor="start" x="197" y="-787.3" font-family="Times,serif" font-size="14.00">new</text>
<text text-anchor="start" x="197" y="-772.3" font-family="Times,serif" font-size="14.00">show</text>
<text text-anchor="start" x="197" y="-757.3" font-family="Times,serif" font-size="14.00">update</text>
<polyline fill="none" stroke="black" points="189,-749.5 365,-749.5 "/>
<polyline fill="none" stroke="black" points="189,-725.5 365,-725.5 "/>
<text text-anchor="start" x="197" y="-710.3" font-family="Times,serif" font-size="14.00">_layout</text>
<text text-anchor="start" x="197" y="-695.3" font-family="Times,serif" font-size="14.00">class_room_params</text>
<text text-anchor="start" x="197" y="-680.3" font-family="Times,serif" font-size="14.00">set_class_room</text>
</g>
<!-- SubjectsController -->
<g id="node14" class="node">
<title>SubjectsController</title>
<path fill="none" stroke="black" d="M12,-861.5C12,-861.5 139,-861.5 139,-861.5 145,-861.5 151,-867.5 151,-873.5 151,-873.5 151,-1062.5 151,-1062.5 151,-1068.5 145,-1074.5 139,-1074.5 139,-1074.5 12,-1074.5 12,-1074.5 6,-1074.5 0,-1068.5 0,-1062.5 0,-1062.5 0,-873.5 0,-873.5 0,-867.5 6,-861.5 12,-861.5"/>
<text text-anchor="middle" x="75.5" y="-1059.3" font-family="Times,serif" font-size="14.00">SubjectsController</text>
<polyline fill="none" stroke="black" points="0,-1051.5 151,-1051.5 "/>
<text text-anchor="start" x="8" y="-1036.3" font-family="Times,serif" font-size="14.00">create</text>
<text text-anchor="start" x="8" y="-1021.3" font-family="Times,serif" font-size="14.00">destroy</text>
<text text-anchor="start" x="8" y="-1006.3" font-family="Times,serif" font-size="14.00">edit</text>
<text text-anchor="start" x="8" y="-991.3" font-family="Times,serif" font-size="14.00">index</text>
<text text-anchor="start" x="8" y="-976.3" font-family="Times,serif" font-size="14.00">new</text>
<text text-anchor="start" x="8" y="-961.3" font-family="Times,serif" font-size="14.00">show</text>
<text text-anchor="start" x="8" y="-946.3" font-family="Times,serif" font-size="14.00">update</text>
<polyline fill="none" stroke="black" points="0,-938.5 151,-938.5 "/>
<polyline fill="none" stroke="black" points="0,-914.5 151,-914.5 "/>
<text text-anchor="start" x="8" y="-899.3" font-family="Times,serif" font-size="14.00">_layout</text>
<text text-anchor="start" x="8" y="-884.3" font-family="Times,serif" font-size="14.00">set_subject</text>
<text text-anchor="start" x="8" y="-869.3" font-family="Times,serif" font-size="14.00">subject_params</text>
</g>
<!-- StaticController -->
<g id="node15" class="node">
<title>StaticController</title>
<path fill="none" stroke="black" d="M747,-0.5C747,-0.5 854,-0.5 854,-0.5 860,-0.5 866,-6.5 866,-12.5 866,-12.5 866,-81.5 866,-81.5 866,-87.5 860,-93.5 854,-93.5 854,-93.5 747,-93.5 747,-93.5 741,-93.5 735,-87.5 735,-81.5 735,-81.5 735,-12.5 735,-12.5 735,-6.5 741,-0.5 747,-0.5"/>
<text text-anchor="middle" x="800.5" y="-78.3" font-family="Times,serif" font-size="14.00">StaticController</text>
<polyline fill="none" stroke="black" points="735,-70.5 866,-70.5 "/>
<text text-anchor="start" x="743" y="-55.3" font-family="Times,serif" font-size="14.00">index</text>
<polyline fill="none" stroke="black" points="735,-47.5 866,-47.5 "/>
<polyline fill="none" stroke="black" points="735,-23.5 866,-23.5 "/>
<text text-anchor="start" x="743" y="-8.3" font-family="Times,serif" font-size="14.00">_layout</text>
</g>
<!-- TeachersController -->
<g id="node16" class="node">
<title>TeachersController</title>
<path fill="none" stroke="black" d="M600,-609.5C600,-609.5 729,-609.5 729,-609.5 735,-609.5 741,-615.5 741,-621.5 741,-621.5 741,-840.5 741,-840.5 741,-846.5 735,-852.5 729,-852.5 729,-852.5 600,-852.5 600,-852.5 594,-852.5 588,-846.5 588,-840.5 588,-840.5 588,-621.5 588,-621.5 588,-615.5 594,-609.5 600,-609.5"/>
<text text-anchor="middle" x="664.5" y="-837.3" font-family="Times,serif" font-size="14.00">TeachersController</text>
<polyline fill="none" stroke="black" points="588,-829.5 741,-829.5 "/>
<text text-anchor="start" x="596" y="-814.3" font-family="Times,serif" font-size="14.00">addsubject</text>
<text text-anchor="start" x="596" y="-799.3" font-family="Times,serif" font-size="14.00">create</text>
<text text-anchor="start" x="596" y="-784.3" font-family="Times,serif" font-size="14.00">destroy</text>
<text text-anchor="start" x="596" y="-769.3" font-family="Times,serif" font-size="14.00">edit</text>
<text text-anchor="start" x="596" y="-754.3" font-family="Times,serif" font-size="14.00">index</text>
<text text-anchor="start" x="596" y="-739.3" font-family="Times,serif" font-size="14.00">new</text>
<text text-anchor="start" x="596" y="-724.3" font-family="Times,serif" font-size="14.00">removesubject</text>
<text text-anchor="start" x="596" y="-709.3" font-family="Times,serif" font-size="14.00">show</text>
<text text-anchor="start" x="596" y="-694.3" font-family="Times,serif" font-size="14.00">update</text>
<polyline fill="none" stroke="black" points="588,-686.5 741,-686.5 "/>
<polyline fill="none" stroke="black" points="588,-662.5 741,-662.5 "/>
<text text-anchor="start" x="596" y="-647.3" font-family="Times,serif" font-size="14.00">_layout</text>
<text text-anchor="start" x="596" y="-632.3" font-family="Times,serif" font-size="14.00">set_teacher</text>
<text text-anchor="start" x="596" y="-617.3" font-family="Times,serif" font-size="14.00">teacher_params</text>
</g>
<!-- SessionsController -->
<g id="node17" class="node">
<title>SessionsController</title>
<path fill="none" stroke="black" d="M12,-693.5C12,-693.5 140,-693.5 140,-693.5 146,-693.5 152,-699.5 152,-705.5 152,-705.5 152,-804.5 152,-804.5 152,-810.5 146,-816.5 140,-816.5 140,-816.5 12,-816.5 12,-816.5 6,-816.5 0,-810.5 0,-804.5 0,-804.5 0,-705.5 0,-705.5 0,-699.5 6,-693.5 12,-693.5"/>
<text text-anchor="middle" x="76" y="-801.3" font-family="Times,serif" font-size="14.00">SessionsController</text>
<polyline fill="none" stroke="black" points="0,-793.5 152,-793.5 "/>
<text text-anchor="start" x="8" y="-778.3" font-family="Times,serif" font-size="14.00">create</text>
<text text-anchor="start" x="8" y="-763.3" font-family="Times,serif" font-size="14.00">destroy</text>
<text text-anchor="start" x="8" y="-748.3" font-family="Times,serif" font-size="14.00">new</text>
<polyline fill="none" stroke="black" points="0,-740.5 152,-740.5 "/>
<polyline fill="none" stroke="black" points="0,-716.5 152,-716.5 "/>
<text text-anchor="start" x="8" y="-701.3" font-family="Times,serif" font-size="14.00">_layout</text>
</g>
</g>
</svg>
