<?xml version="1.0" encoding="UTF-8" standalone="no"?>
<!DOCTYPE svg PUBLIC "-//W3C//DTD SVG 1.1//EN"
 "http://www.w3.org/Graphics/SVG/1.1/DTD/svg11.dtd">
<!-- Generated by graphviz version 2.43.0 (0)
 -->
<!-- Title: models_diagram Pages: 1 -->
<svg width="685pt" height="374pt"
 viewBox="0.00 0.00 685.40 374.00" xmlns="http://www.w3.org/2000/svg" xmlns:xlink="http://www.w3.org/1999/xlink">
<g id="graph0" class="graph" transform="scale(1 1) rotate(0) translate(4 370)">
<title>models_diagram</title>
<polygon fill="transparent" stroke="transparent" points="-4,4 -4,-370 681.4,-370 681.4,4 -4,4"/>
<!-- _diagram_info -->
<g id="node1" class="node">
<title>_diagram_info</title>
<text text-anchor="start" x="8" y="-351.6" font-family="Times,serif" font-size="13.00">Models diagram</text>
<text text-anchor="start" x="8" y="-337.6" font-family="Times,serif" font-size="13.00">Date: May 18 2022 &#45; 05:43</text>
<text text-anchor="start" x="8" y="-323.6" font-family="Times,serif" font-size="13.00">Migration version: 20220516103212</text>
<text text-anchor="start" x="8" y="-309.6" font-family="Times,serif" font-size="13.00">Generated by RailRoady 1.6.0</text>
<text text-anchor="start" x="8" y="-295.6" font-family="Times,serif" font-size="13.00">http://railroady.prestonlee.com</text>
</g>
<!-- Animal -->
<g id="node2" class="node">
<title>Animal</title>
<ellipse fill="none" stroke="black" cx="105.5" cy="-234" rx="42.79" ry="18"/>
<text text-anchor="middle" x="105.5" y="-230.3" font-family="Times,serif" font-size="14.00">Animal</text>
</g>
<!-- ClassType -->
<g id="node11" class="node">
<title>ClassType</title>
<ellipse fill="none" stroke="black" cx="109.5" cy="-162" rx="57.69" ry="18"/>
<text text-anchor="middle" x="109.5" y="-158.3" font-family="Times,serif" font-size="14.00">ClassType</text>
</g>
<!-- Animal&#45;&gt;ClassType -->
<g id="edge1" class="edge">
<title>Animal&#45;&gt;ClassType</title>
<path fill="none" stroke="#c259d8" d="M107.06,-205.67C107.35,-200.55 107.66,-195.21 107.95,-190.1"/>
<polygon fill="#c259d8" stroke="#c259d8" points="107.06,-205.71 102,-215.44 106.77,-210.7 106.49,-215.7 106.49,-215.7 106.49,-215.7 106.77,-210.7 110.98,-215.95 107.06,-205.71 107.06,-205.71"/>
<polygon fill="#c259d8" stroke="#c259d8" points="107.95,-190.09 113.02,-180.36 108.24,-185.1 108.52,-180.1 108.52,-180.1 108.52,-180.1 108.24,-185.1 104.03,-179.85 107.95,-190.09 107.95,-190.09"/>
</g>
<!-- Employee -->
<g id="node3" class="node">
<title>Employee</title>
<ellipse fill="none" stroke="black" cx="333.5" cy="-234" rx="56.59" ry="18"/>
<text text-anchor="middle" x="333.5" y="-230.3" font-family="Times,serif" font-size="14.00">Employee</text>
</g>
<!-- Teacher -->
<g id="node7" class="node">
<title>Teacher</title>
<ellipse fill="none" stroke="black" cx="232.5" cy="-162" rx="47.39" ry="18"/>
<text text-anchor="middle" x="232.5" y="-158.3" font-family="Times,serif" font-size="14.00">Teacher</text>
</g>
<!-- Employee&#45;&gt;Teacher -->
<g id="edge3" class="edge">
<title>Employee&#45;&gt;Teacher</title>
<path fill="none" stroke="#adf792" d="M302.78,-211.71C290.13,-202.94 275.5,-192.8 262.87,-184.05"/>
<polygon fill="#adf792" stroke="#adf792" points="302.87,-211.77 308.52,-221.16 306.98,-214.62 311.08,-217.46 311.08,-217.46 311.08,-217.46 306.98,-214.62 313.65,-213.77 302.87,-211.77 302.87,-211.77"/>
<polygon fill="#adf792" stroke="#adf792" points="262.72,-183.95 257.07,-174.55 258.61,-181.1 254.51,-178.25 254.51,-178.25 254.51,-178.25 258.61,-181.1 251.94,-181.95 262.72,-183.95 262.72,-183.95"/>
</g>
<!-- Trainer -->
<g id="node9" class="node">
<title>Trainer</title>
<ellipse fill="none" stroke="black" cx="342.5" cy="-162" rx="44.69" ry="18"/>
<text text-anchor="middle" x="342.5" y="-158.3" font-family="Times,serif" font-size="14.00">Trainer</text>
</g>
<!-- Employee&#45;&gt;Trainer -->
<g id="edge4" class="edge">
<title>Employee&#45;&gt;Trainer</title>
<path fill="none" stroke="#768501" d="M337.01,-205.67C337.67,-200.55 338.36,-195.21 339.02,-190.1"/>
<polygon fill="#768501" stroke="#768501" points="337,-205.78 331.26,-215.12 336.36,-210.74 335.72,-215.7 335.72,-215.7 335.72,-215.7 336.36,-210.74 340.19,-216.27 337,-205.78 337,-205.78"/>
<polygon fill="#768501" stroke="#768501" points="339.03,-190.02 344.76,-180.68 339.66,-185.06 340.3,-180.1 340.3,-180.1 340.3,-180.1 339.66,-185.06 335.84,-179.53 339.03,-190.02 339.03,-190.02"/>
</g>
<!-- Email -->
<g id="node10" class="node">
<title>Email</title>
<ellipse fill="none" stroke="black" cx="621.5" cy="-162" rx="37.89" ry="18"/>
<text text-anchor="middle" x="621.5" y="-158.3" font-family="Times,serif" font-size="14.00">Email</text>
</g>
<!-- Employee&#45;&gt;Email -->
<g id="edge2" class="edge">
<title>Employee&#45;&gt;Email</title>
<path fill="none" stroke="#94984f" d="M391.61,-222.62C440.99,-213.24 513.52,-198.15 575.5,-180 578.26,-179.19 581.09,-178.3 583.92,-177.37"/>
<polygon fill="#94984f" stroke="#94984f" points="391.58,-222.62 380.92,-220.05 386.66,-223.55 381.75,-224.47 381.75,-224.47 381.75,-224.47 386.66,-223.55 382.58,-228.9 391.58,-222.62 391.58,-222.62"/>
<polygon fill="#94984f" stroke="#94984f" points="584.04,-177.33 594.96,-178.31 588.76,-175.69 593.49,-174.05 593.49,-174.05 593.49,-174.05 588.76,-175.69 592.01,-169.8 584.04,-177.33 584.04,-177.33"/>
</g>
<!-- Employee&#45;&gt;ClassType -->
<g id="edge5" class="edge">
<title>Employee&#45;&gt;ClassType</title>
<path fill="none" stroke="#3c0b6f" d="M285.03,-217.85C247.65,-206.17 196.17,-190.08 158.63,-178.35"/>
<polygon fill="#3c0b6f" stroke="#3c0b6f" points="285.19,-217.9 293.4,-225.18 289.97,-219.4 294.74,-220.89 294.74,-220.89 294.74,-220.89 289.97,-219.4 296.08,-216.59 285.19,-217.9 285.19,-217.9"/>
<polygon fill="#3c0b6f" stroke="#3c0b6f" points="158.46,-178.3 150.26,-171.02 153.69,-176.81 148.92,-175.32 148.92,-175.32 148.92,-175.32 153.69,-176.81 147.57,-179.61 158.46,-178.3 158.46,-178.3"/>
</g>
<!-- Grade -->
<g id="node4" class="node">
<title>Grade</title>
<ellipse fill="none" stroke="black" cx="315.5" cy="-327" rx="38.99" ry="18"/>
<text text-anchor="middle" x="315.5" y="-323.3" font-family="Times,serif" font-size="14.00">Grade</text>
</g>
<!-- Subject -->
<g id="node6" class="node">
<title>Subject</title>
<ellipse fill="none" stroke="black" cx="212.5" cy="-234" rx="46.29" ry="18"/>
<text text-anchor="middle" x="212.5" y="-230.3" font-family="Times,serif" font-size="14.00">Subject</text>
</g>
<!-- Grade&#45;&gt;Subject -->
<g id="edge7" class="edge">
<title>Grade&#45;&gt;Subject</title>
<path fill="none" stroke="#0a2956" d="M290.5,-303.91C274.68,-289.93 254.27,-271.91 238.3,-257.8"/>
<polygon fill="#0a2956" stroke="#0a2956" points="290.53,-303.94 295.05,-313.94 294.28,-307.25 298.03,-310.56 298.03,-310.56 298.03,-310.56 294.28,-307.25 301.01,-307.19 290.53,-303.94 290.53,-303.94"/>
<polygon fill="#0a2956" stroke="#0a2956" points="237.9,-257.44 233.38,-247.45 234.15,-254.13 230.4,-250.82 230.4,-250.82 230.4,-250.82 234.15,-254.13 227.42,-254.19 237.9,-257.44 237.9,-257.44"/>
</g>
<!-- Student -->
<g id="node12" class="node">
<title>Student</title>
<ellipse fill="none" stroke="black" cx="458.5" cy="-90" rx="48.19" ry="18"/>
<text text-anchor="middle" x="458.5" y="-86.3" font-family="Times,serif" font-size="14.00">Student</text>
</g>
<!-- Grade&#45;&gt;Student -->
<g id="edge6" class="edge">
<title>Grade&#45;&gt;Student</title>
<path fill="none" stroke="#35f374" d="M342.27,-304.92C363.64,-287.64 391.31,-264.14 399.5,-252 427.96,-209.82 419.68,-191.66 437.5,-144 440.74,-135.34 444.41,-125.94 447.77,-117.49"/>
<polygon fill="#35f374" stroke="#35f374" points="342.24,-304.94 331.63,-307.68 338.34,-308.07 334.44,-311.19 334.44,-311.19 334.44,-311.19 338.34,-308.07 337.26,-314.7 342.24,-304.94 342.24,-304.94"/>
<polygon fill="#35f374" stroke="#35f374" points="447.8,-117.4 455.7,-109.79 449.66,-112.76 451.52,-108.12 451.52,-108.12 451.52,-108.12 449.66,-112.76 447.34,-106.45 447.8,-117.4 447.8,-117.4"/>
</g>
<!-- Message -->
<g id="node5" class="node">
<title>Message</title>
<ellipse fill="none" stroke="black" cx="621.5" cy="-234" rx="51.99" ry="18"/>
<text text-anchor="middle" x="621.5" y="-230.3" font-family="Times,serif" font-size="14.00">Message</text>
</g>
<!-- Message&#45;&gt;Email -->
<g id="edge8" class="edge">
<title>Message&#45;&gt;Email</title>
<path fill="none" stroke="#014b27" d="M621.5,-205.67C621.5,-200.69 621.5,-195.49 621.5,-190.51"/>
<polygon fill="#014b27" stroke="#014b27" points="621.5,-205.7 617,-215.7 621.5,-210.7 621.5,-215.7 621.5,-215.7 621.5,-215.7 621.5,-210.7 626,-215.7 621.5,-205.7 621.5,-205.7"/>
<polygon fill="#014b27" stroke="#014b27" points="621.5,-190.1 626,-180.1 621.5,-185.1 621.5,-180.1 621.5,-180.1 621.5,-180.1 621.5,-185.1 617,-180.1 621.5,-190.1 621.5,-190.1"/>
</g>
<!-- Subject&#45;&gt;Teacher -->
<g id="edge10" class="edge">
<title>Subject&#45;&gt;Teacher</title>
<path fill="none" stroke="#2a9328" d="M220.13,-206.29C221.65,-200.97 223.25,-195.39 224.77,-190.06"/>
<polygon fill="#2a9328" stroke="#2a9328" points="220.09,-206.44 213.01,-214.82 218.72,-211.25 217.34,-216.05 217.34,-216.05 217.34,-216.05 218.72,-211.25 221.67,-217.29 220.09,-206.44 220.09,-206.44"/>
<polygon fill="#2a9328" stroke="#2a9328" points="224.82,-189.89 231.89,-181.51 226.19,-185.08 227.56,-180.28 227.56,-180.28 227.56,-180.28 226.19,-185.08 223.24,-179.04 224.82,-189.89 224.82,-189.89"/>
</g>
<!-- Subject&#45;&gt;Trainer -->
<g id="edge11" class="edge">
<title>Subject&#45;&gt;Trainer</title>
<path fill="none" stroke="#fc6375" d="M247.43,-214.19C266.05,-204.17 288.88,-191.87 307.51,-181.84"/>
<polygon fill="#fc6375" stroke="#fc6375" points="247.3,-214.26 236.36,-215.04 242.9,-216.63 238.49,-219 238.49,-219 238.49,-219 242.9,-216.63 240.63,-222.96 247.3,-214.26 247.3,-214.26"/>
<polygon fill="#fc6375" stroke="#fc6375" points="307.75,-181.71 318.68,-180.94 312.15,-179.34 316.55,-176.97 316.55,-176.97 316.55,-176.97 312.15,-179.34 314.42,-173.01 307.75,-181.71 307.75,-181.71"/>
</g>
<!-- Subject&#45;&gt;ClassType -->
<g id="edge9" class="edge">
<title>Subject&#45;&gt;ClassType</title>
<path fill="none" stroke="#5d1c2e" d="M182,-212.27C169.16,-203.55 154.22,-193.39 141.25,-184.58"/>
<polygon fill="#5d1c2e" stroke="#5d1c2e" points="182.13,-212.36 187.87,-221.71 186.27,-215.17 190.4,-217.98 190.4,-217.98 190.4,-217.98 186.27,-215.17 192.93,-214.26 182.13,-212.36 182.13,-212.36"/>
<polygon fill="#5d1c2e" stroke="#5d1c2e" points="140.9,-184.34 135.16,-175 136.77,-181.53 132.63,-178.72 132.63,-178.72 132.63,-178.72 136.77,-181.53 130.1,-182.44 140.9,-184.34 140.9,-184.34"/>
</g>
<!-- Certificate -->
<g id="node8" class="node">
<title>Certificate</title>
<ellipse fill="none" stroke="black" cx="506.5" cy="-162" rx="59.59" ry="18"/>
<text text-anchor="middle" x="506.5" y="-158.3" font-family="Times,serif" font-size="14.00">Certificate</text>
</g>
<!-- Certificate&#45;&gt;Student -->
<g id="edge12" class="edge">
<title>Certificate&#45;&gt;Student</title>
<path fill="none" stroke="#e9acbc" d="M489.07,-135.58C484.7,-129.21 480.03,-122.4 475.68,-116.06"/>
<polygon fill="#e9acbc" stroke="#e9acbc" points="489.23,-135.81 491.17,-146.6 492.05,-139.93 494.88,-144.05 494.88,-144.05 494.88,-144.05 492.05,-139.93 498.59,-141.51 489.23,-135.81 489.23,-135.81"/>
<polygon fill="#e9acbc" stroke="#e9acbc" points="475.67,-116.04 473.72,-105.24 472.84,-111.91 470.01,-107.79 470.01,-107.79 470.01,-107.79 472.84,-111.91 466.3,-110.33 475.67,-116.04 475.67,-116.04"/>
</g>
<!-- Email&#45;&gt;Student -->
<g id="edge14" class="edge">
<title>Email&#45;&gt;Student</title>
<path fill="none" stroke="#1419f2" d="M584.87,-145.27C559.11,-134.21 524.68,-119.42 498.26,-108.08"/>
<polygon fill="#1419f2" stroke="#1419f2" points="585.03,-145.34 592.44,-153.42 589.62,-147.31 594.22,-149.28 594.22,-149.28 594.22,-149.28 589.62,-147.31 595.99,-145.15 585.03,-145.34 585.03,-145.34"/>
<polygon fill="#1419f2" stroke="#1419f2" points="498.11,-108.01 490.7,-99.93 493.52,-106.04 488.92,-104.07 488.92,-104.07 488.92,-104.07 493.52,-106.04 487.15,-108.2 498.11,-108.01 498.11,-108.01"/>
</g>
<!-- Employer -->
<g id="node16" class="node">
<title>Employer</title>
<ellipse fill="none" stroke="black" cx="621.5" cy="-90" rx="55.79" ry="18"/>
<text text-anchor="middle" x="621.5" y="-86.3" font-family="Times,serif" font-size="14.00">Employer</text>
</g>
<!-- Email&#45;&gt;Employer -->
<g id="edge13" class="edge">
<title>Email&#45;&gt;Employer</title>
<path fill="none" stroke="#04fd92" d="M621.5,-133.67C621.5,-128.69 621.5,-123.49 621.5,-118.51"/>
<polygon fill="#04fd92" stroke="#04fd92" points="621.5,-133.7 617,-143.7 621.5,-138.7 621.5,-143.7 621.5,-143.7 621.5,-143.7 621.5,-138.7 626,-143.7 621.5,-133.7 621.5,-133.7"/>
<polygon fill="#04fd92" stroke="#04fd92" points="621.5,-118.1 626,-108.1 621.5,-113.1 621.5,-108.1 621.5,-108.1 621.5,-108.1 621.5,-113.1 617,-108.1 621.5,-118.1 621.5,-118.1"/>
</g>
<!-- ClassRoom -->
<g id="node13" class="node">
<title>ClassRoom</title>
<ellipse fill="none" stroke="black" cx="109.5" cy="-90" rx="61.99" ry="18"/>
<text text-anchor="middle" x="109.5" y="-86.3" font-family="Times,serif" font-size="14.00">ClassRoom</text>
</g>
<!-- ClassType&#45;&gt;ClassRoom -->
<g id="edge16" class="edge">
<title>ClassType&#45;&gt;ClassRoom</title>
<path fill="none" stroke="#4f4211" d="M109.5,-133.67C109.5,-128.69 109.5,-123.49 109.5,-118.51"/>
<polygon fill="#4f4211" stroke="#4f4211" points="109.5,-133.7 105,-143.7 109.5,-138.7 109.5,-143.7 109.5,-143.7 109.5,-143.7 109.5,-138.7 114,-143.7 109.5,-133.7 109.5,-133.7"/>
<polygon fill="#4f4211" stroke="#4f4211" points="109.5,-118.1 114,-108.1 109.5,-113.1 109.5,-108.1 109.5,-108.1 109.5,-108.1 109.5,-113.1 105,-108.1 109.5,-118.1 109.5,-118.1"/>
</g>
<!-- ClassList -->
<g id="node14" class="node">
<title>ClassList</title>
<ellipse fill="none" stroke="black" cx="385.5" cy="-18" rx="53.09" ry="18"/>
<text text-anchor="middle" x="385.5" y="-14.3" font-family="Times,serif" font-size="14.00">ClassList</text>
</g>
<!-- ClassType&#45;&gt;ClassList -->
<g id="edge15" class="edge">
<title>ClassType&#45;&gt;ClassList</title>
<path fill="none" stroke="#66830c" d="M147.49,-141.45C200.42,-114.22 295.72,-65.19 348.24,-38.17"/>
<polygon fill="#66830c" stroke="#66830c" points="147.15,-141.63 136.2,-142.2 142.7,-143.92 138.26,-146.21 138.26,-146.21 138.26,-146.21 142.7,-143.92 140.31,-150.21 147.15,-141.63 147.15,-141.63"/>
<polygon fill="#66830c" stroke="#66830c" points="348.33,-38.12 359.28,-37.55 352.78,-35.84 357.22,-33.55 357.22,-33.55 357.22,-33.55 352.78,-35.84 355.16,-29.55 348.33,-38.12 348.33,-38.12"/>
</g>
<!-- Student&#45;&gt;ClassList -->
<g id="edge17" class="edge">
<title>Student&#45;&gt;ClassList</title>
<path fill="none" stroke="#f604c6" d="M434.27,-65.77C426.42,-58.24 417.71,-49.89 409.85,-42.35"/>
<polygon fill="#f604c6" stroke="#f604c6" points="434.35,-65.84 438.45,-76.01 437.96,-69.3 441.57,-72.76 441.57,-72.76 441.57,-72.76 437.96,-69.3 444.68,-69.52 434.35,-65.84 434.35,-65.84"/>
<polygon fill="#f604c6" stroke="#f604c6" points="409.56,-42.07 405.45,-31.9 405.95,-38.61 402.34,-35.15 402.34,-35.15 402.34,-35.15 405.95,-38.61 399.22,-38.4 409.56,-42.07 409.56,-42.07"/>
</g>
<!-- ApplicationRecord -->
<g id="node15" class="node">
<title>ApplicationRecord</title>
<ellipse fill="none" stroke="black" cx="468.5" cy="-327" rx="95.58" ry="18"/>
<text text-anchor="middle" x="468.5" y="-323.3" font-family="Times,serif" font-size="14.00">ApplicationRecord</text>
</g>
</g>
</svg>
