<?xml version="1.0" encoding="UTF-8" standalone="no"?>
<!DOCTYPE svg PUBLIC "-//W3C//DTD SVG 1.1//EN"
 "http://www.w3.org/Graphics/SVG/1.1/DTD/svg11.dtd">
<!-- Generated by graphviz version 2.43.0 (0)
 -->
<!-- Title: models_diagram Pages: 1 -->
<svg width="1714pt" height="957pt"
 viewBox="0.00 0.00 1714.00 957.00" xmlns="http://www.w3.org/2000/svg" xmlns:xlink="http://www.w3.org/1999/xlink">
<g id="graph0" class="graph" transform="scale(1 1) rotate(0) translate(4 953)">
<title>models_diagram</title>
<polygon fill="transparent" stroke="transparent" points="-4,4 -4,-953 1710,-953 1710,4 -4,4"/>
<!-- _diagram_info -->
<g id="node1" class="node">
<title>_diagram_info</title>
<text text-anchor="start" x="333" y="-897.6" font-family="Times,serif" font-size="13.00">Models diagram</text>
<text text-anchor="start" x="333" y="-883.6" font-family="Times,serif" font-size="13.00">Date: May 18 2022 &#45; 05:43</text>
<text text-anchor="start" x="333" y="-869.6" font-family="Times,serif" font-size="13.00">Migration version: 20220516103212</text>
<text text-anchor="start" x="333" y="-855.6" font-family="Times,serif" font-size="13.00">Generated by RailRoady 1.6.0</text>
<text text-anchor="start" x="333" y="-841.6" font-family="Times,serif" font-size="13.00">http://railroady.prestonlee.com</text>
</g>
<!-- Animal -->
<g id="node2" class="node">
<title>Animal</title>
<path fill="none" stroke="black" d="M12,-594.5C12,-594.5 303,-594.5 303,-594.5 309,-594.5 315,-600.5 315,-606.5 315,-606.5 315,-733.5 315,-733.5 315,-739.5 309,-745.5 303,-745.5 303,-745.5 12,-745.5 12,-745.5 6,-745.5 0,-739.5 0,-733.5 0,-733.5 0,-606.5 0,-606.5 0,-600.5 6,-594.5 12,-594.5"/>
<text text-anchor="middle" x="157.5" y="-730.3" font-family="Times,serif" font-size="14.00">Animal</text>
<polyline fill="none" stroke="black" points="0,-722.5 315,-722.5 "/>
<text text-anchor="start" x="8" y="-707.3" font-family="Times,serif" font-size="14.00">id :bigint</text>
<text text-anchor="start" x="8" y="-692.3" font-family="Times,serif" font-size="14.00">AnimalId :integer</text>
<text text-anchor="start" x="8" y="-677.3" font-family="Times,serif" font-size="14.00">Species :character varying</text>
<text text-anchor="start" x="8" y="-662.3" font-family="Times,serif" font-size="14.00">Gender :character varying</text>
<text text-anchor="start" x="8" y="-647.3" font-family="Times,serif" font-size="14.00">IsAlive :boolean</text>
<text text-anchor="start" x="8" y="-632.3" font-family="Times,serif" font-size="14.00">Name :character varying</text>
<text text-anchor="start" x="8" y="-617.3" font-family="Times,serif" font-size="14.00">created_at :timestamp without time zone</text>
<text text-anchor="start" x="8" y="-602.3" font-family="Times,serif" font-size="14.00">updated_at :timestamp without time zone</text>
</g>
<!-- ClassType -->
<g id="node11" class="node">
<title>ClassType</title>
<path fill="none" stroke="black" d="M27,-399C27,-399 318,-399 318,-399 324,-399 330,-405 330,-411 330,-411 330,-493 330,-493 330,-499 324,-505 318,-505 318,-505 27,-505 27,-505 21,-505 15,-499 15,-493 15,-493 15,-411 15,-411 15,-405 21,-399 27,-399"/>
<text text-anchor="middle" x="172.5" y="-489.8" font-family="Times,serif" font-size="14.00">ClassType</text>
<polyline fill="none" stroke="black" points="15,-482 330,-482 "/>
<text text-anchor="start" x="23" y="-466.8" font-family="Times,serif" font-size="14.00">id :bigint</text>
<text text-anchor="start" x="23" y="-451.8" font-family="Times,serif" font-size="14.00">ClassId :integer</text>
<text text-anchor="start" x="23" y="-436.8" font-family="Times,serif" font-size="14.00">Period :character varying</text>
<text text-anchor="start" x="23" y="-421.8" font-family="Times,serif" font-size="14.00">created_at :timestamp without time zone</text>
<text text-anchor="start" x="23" y="-406.8" font-family="Times,serif" font-size="14.00">updated_at :timestamp without time zone</text>
</g>
<!-- Animal&#45;&gt;ClassType -->
<g id="edge1" class="edge">
<title>Animal&#45;&gt;ClassType</title>
<path fill="none" stroke="#795315" d="M163.39,-584.25C164.98,-561.22 166.69,-536.7 168.18,-515.17"/>
<polygon fill="#795315" stroke="#795315" points="163.38,-584.39 158.19,-594.05 163.03,-589.37 162.68,-594.36 162.68,-594.36 162.68,-594.36 163.03,-589.37 167.17,-594.67 163.38,-584.39 163.38,-584.39"/>
<polygon fill="#795315" stroke="#795315" points="168.18,-515.16 173.37,-505.5 168.53,-510.17 168.88,-505.19 168.88,-505.19 168.88,-505.19 168.53,-510.17 164.39,-504.88 168.18,-515.16 168.18,-515.16"/>
</g>
<!-- Employee -->
<g id="node3" class="node">
<title>Employee</title>
<path fill="none" stroke="black" d="M678,-609.5C678,-609.5 989,-609.5 989,-609.5 995,-609.5 1001,-615.5 1001,-621.5 1001,-621.5 1001,-718.5 1001,-718.5 1001,-724.5 995,-730.5 989,-730.5 989,-730.5 678,-730.5 678,-730.5 672,-730.5 666,-724.5 666,-718.5 666,-718.5 666,-621.5 666,-621.5 666,-615.5 672,-609.5 678,-609.5"/>
<text text-anchor="middle" x="833.5" y="-715.3" font-family="Times,serif" font-size="14.00">Employee</text>
<polyline fill="none" stroke="black" points="666,-707.5 1001,-707.5 "/>
<text text-anchor="start" x="674" y="-692.3" font-family="Times,serif" font-size="14.00">id :bigint</text>
<text text-anchor="start" x="674" y="-677.3" font-family="Times,serif" font-size="14.00">EmployeeId :integer</text>
<text text-anchor="start" x="674" y="-662.3" font-family="Times,serif" font-size="14.00">EmailId :integer</text>
<text text-anchor="start" x="674" y="-647.3" font-family="Times,serif" font-size="14.00">created_at :timestamp(6) without time zone</text>
<text text-anchor="start" x="674" y="-632.3" font-family="Times,serif" font-size="14.00">updated_at :timestamp(6) without time zone</text>
<text text-anchor="start" x="674" y="-617.3" font-family="Times,serif" font-size="14.00">class_type_id :bigint</text>
</g>
<!-- Teacher -->
<g id="node7" class="node">
<title>Teacher</title>
<path fill="none" stroke="black" d="M360,-361.5C360,-361.5 651,-361.5 651,-361.5 657,-361.5 663,-367.5 663,-373.5 663,-373.5 663,-530.5 663,-530.5 663,-536.5 657,-542.5 651,-542.5 651,-542.5 360,-542.5 360,-542.5 354,-542.5 348,-536.5 348,-530.5 348,-530.5 348,-373.5 348,-373.5 348,-367.5 354,-361.5 360,-361.5"/>
<text text-anchor="middle" x="505.5" y="-527.3" font-family="Times,serif" font-size="14.00">Teacher</text>
<polyline fill="none" stroke="black" points="348,-519.5 663,-519.5 "/>
<text text-anchor="start" x="356" y="-504.3" font-family="Times,serif" font-size="14.00">id :bigint</text>
<text text-anchor="start" x="356" y="-489.3" font-family="Times,serif" font-size="14.00">TeacherId :integer</text>
<text text-anchor="start" x="356" y="-474.3" font-family="Times,serif" font-size="14.00">FirstName :character varying</text>
<text text-anchor="start" x="356" y="-459.3" font-family="Times,serif" font-size="14.00">LastName :character varying</text>
<text text-anchor="start" x="356" y="-444.3" font-family="Times,serif" font-size="14.00">Title :character varying</text>
<text text-anchor="start" x="356" y="-429.3" font-family="Times,serif" font-size="14.00">created_at :timestamp without time zone</text>
<text text-anchor="start" x="356" y="-414.3" font-family="Times,serif" font-size="14.00">updated_at :timestamp without time zone</text>
<text text-anchor="start" x="356" y="-399.3" font-family="Times,serif" font-size="14.00">employee_id :bigint</text>
<text text-anchor="start" x="356" y="-384.3" font-family="Times,serif" font-size="14.00">password_digest :character varying</text>
<text text-anchor="start" x="356" y="-369.3" font-family="Times,serif" font-size="14.00">token :character varying</text>
</g>
<!-- Employee&#45;&gt;Teacher -->
<g id="edge3" class="edge">
<title>Employee&#45;&gt;Teacher</title>
<path fill="none" stroke="#0d5c14" d="M734.44,-603.77C707.81,-586.23 678.46,-566.9 649.91,-548.1"/>
<polygon fill="#0d5c14" stroke="#0d5c14" points="734.65,-603.91 740.53,-613.16 738.83,-606.66 743,-609.41 743,-609.41 743,-609.41 738.83,-606.66 745.48,-605.65 734.65,-603.91 734.65,-603.91"/>
<polygon fill="#0d5c14" stroke="#0d5c14" points="649.83,-548.05 643.96,-538.79 645.66,-545.3 641.48,-542.55 641.48,-542.55 641.48,-542.55 645.66,-545.3 639.01,-546.31 649.83,-548.05 649.83,-548.05"/>
</g>
<!-- Trainer -->
<g id="node9" class="node">
<title>Trainer</title>
<path fill="none" stroke="black" d="M693,-369C693,-369 984,-369 984,-369 990,-369 996,-375 996,-381 996,-381 996,-523 996,-523 996,-529 990,-535 984,-535 984,-535 693,-535 693,-535 687,-535 681,-529 681,-523 681,-523 681,-381 681,-381 681,-375 687,-369 693,-369"/>
<text text-anchor="middle" x="838.5" y="-519.8" font-family="Times,serif" font-size="14.00">Trainer</text>
<polyline fill="none" stroke="black" points="681,-512 996,-512 "/>
<text text-anchor="start" x="689" y="-496.8" font-family="Times,serif" font-size="14.00">id :bigint</text>
<text text-anchor="start" x="689" y="-481.8" font-family="Times,serif" font-size="14.00">TrainerId :integer</text>
<text text-anchor="start" x="689" y="-466.8" font-family="Times,serif" font-size="14.00">FirstName :character varying</text>
<text text-anchor="start" x="689" y="-451.8" font-family="Times,serif" font-size="14.00">LastName :character varying</text>
<text text-anchor="start" x="689" y="-436.8" font-family="Times,serif" font-size="14.00">created_at :timestamp without time zone</text>
<text text-anchor="start" x="689" y="-421.8" font-family="Times,serif" font-size="14.00">updated_at :timestamp without time zone</text>
<text text-anchor="start" x="689" y="-406.8" font-family="Times,serif" font-size="14.00">employee_id :bigint</text>
<text text-anchor="start" x="689" y="-391.8" font-family="Times,serif" font-size="14.00">password_digest :character varying</text>
<text text-anchor="start" x="689" y="-376.8" font-family="Times,serif" font-size="14.00">token :character varying</text>
</g>
<!-- Employee&#45;&gt;Trainer -->
<g id="edge4" class="edge">
<title>Employee&#45;&gt;Trainer</title>
<path fill="none" stroke="#12dbb1" d="M835.12,-599.23C835.51,-581.96 835.95,-563.19 836.37,-545.04"/>
<polygon fill="#12dbb1" stroke="#12dbb1" points="835.11,-599.41 830.38,-609.3 835,-604.41 834.88,-609.41 834.88,-609.41 834.88,-609.41 835,-604.41 839.38,-609.51 835.11,-599.41 835.11,-599.41"/>
<polygon fill="#12dbb1" stroke="#12dbb1" points="836.37,-545.03 841.1,-535.14 836.49,-540.03 836.6,-535.04 836.6,-535.04 836.6,-535.04 836.49,-540.03 832.1,-534.93 836.37,-545.03 836.37,-545.03"/>
</g>
<!-- Email -->
<g id="node10" class="node">
<title>Email</title>
<path fill="none" stroke="black" d="M1403,-376.5C1403,-376.5 1694,-376.5 1694,-376.5 1700,-376.5 1706,-382.5 1706,-388.5 1706,-388.5 1706,-515.5 1706,-515.5 1706,-521.5 1700,-527.5 1694,-527.5 1694,-527.5 1403,-527.5 1403,-527.5 1397,-527.5 1391,-521.5 1391,-515.5 1391,-515.5 1391,-388.5 1391,-388.5 1391,-382.5 1397,-376.5 1403,-376.5"/>
<text text-anchor="middle" x="1548.5" y="-512.3" font-family="Times,serif" font-size="14.00">Email</text>
<polyline fill="none" stroke="black" points="1391,-504.5 1706,-504.5 "/>
<text text-anchor="start" x="1399" y="-489.3" font-family="Times,serif" font-size="14.00">id :bigint</text>
<text text-anchor="start" x="1399" y="-474.3" font-family="Times,serif" font-size="14.00">EmailId :integer</text>
<text text-anchor="start" x="1399" y="-459.3" font-family="Times,serif" font-size="14.00">OwnerId :character varying</text>
<text text-anchor="start" x="1399" y="-444.3" font-family="Times,serif" font-size="14.00">EmailAddress :character varying</text>
<text text-anchor="start" x="1399" y="-429.3" font-family="Times,serif" font-size="14.00">created_at :timestamp without time zone</text>
<text text-anchor="start" x="1399" y="-414.3" font-family="Times,serif" font-size="14.00">updated_at :timestamp without time zone</text>
<text text-anchor="start" x="1399" y="-399.3" font-family="Times,serif" font-size="14.00">employee_id :bigint</text>
<text text-anchor="start" x="1399" y="-384.3" font-family="Times,serif" font-size="14.00">student_id :bigint</text>
</g>
<!-- Employee&#45;&gt;Email -->
<g id="edge2" class="edge">
<title>Employee&#45;&gt;Email</title>
<path fill="none" stroke="#883faa" d="M1011.28,-640.64C1120.27,-620.2 1261.46,-588.2 1381.5,-543 1390.42,-539.64 1399.46,-535.89 1408.48,-531.88"/>
<polygon fill="#883faa" stroke="#883faa" points="1011,-640.69 1000.34,-638.09 1006.08,-641.6 1001.16,-642.52 1001.16,-642.52 1001.16,-642.52 1006.08,-641.6 1001.99,-646.94 1011,-640.69 1011,-640.69"/>
<polygon fill="#883faa" stroke="#883faa" points="1408.76,-531.75 1419.72,-531.71 1413.31,-529.68 1417.86,-527.61 1417.86,-527.61 1417.86,-527.61 1413.31,-529.68 1415.99,-523.52 1408.76,-531.75 1408.76,-531.75"/>
</g>
<!-- Employee&#45;&gt;ClassType -->
<g id="edge5" class="edge">
<title>Employee&#45;&gt;ClassType</title>
<path fill="none" stroke="#0b8d95" d="M722.64,-605.1C701.25,-594.95 678.6,-585.63 656.5,-579 520.27,-538.11 474.18,-585.68 338.5,-543 312.85,-534.93 286.6,-522.79 262.76,-510.02"/>
<polygon fill="#0b8d95" stroke="#0b8d95" points="722.72,-605.14 729.77,-613.54 727.22,-607.31 731.73,-609.49 731.73,-609.49 731.73,-609.49 727.22,-607.31 733.69,-605.44 722.72,-605.14 722.72,-605.14"/>
<polygon fill="#0b8d95" stroke="#0b8d95" points="262.52,-509.9 255.9,-501.16 258.14,-507.5 253.75,-505.11 253.75,-505.11 253.75,-505.11 258.14,-507.5 251.59,-509.06 262.52,-509.9 262.52,-509.9"/>
</g>
<!-- Grade -->
<g id="node4" class="node">
<title>Grade</title>
<path fill="none" stroke="black" d="M614,-797.5C614,-797.5 905,-797.5 905,-797.5 911,-797.5 917,-803.5 917,-809.5 917,-809.5 917,-936.5 917,-936.5 917,-942.5 911,-948.5 905,-948.5 905,-948.5 614,-948.5 614,-948.5 608,-948.5 602,-942.5 602,-936.5 602,-936.5 602,-809.5 602,-809.5 602,-803.5 608,-797.5 614,-797.5"/>
<text text-anchor="middle" x="759.5" y="-933.3" font-family="Times,serif" font-size="14.00">Grade</text>
<polyline fill="none" stroke="black" points="602,-925.5 917,-925.5 "/>
<text text-anchor="start" x="610" y="-910.3" font-family="Times,serif" font-size="14.00">id :bigint</text>
<text text-anchor="start" x="610" y="-895.3" font-family="Times,serif" font-size="14.00">GradeId :integer</text>
<text text-anchor="start" x="610" y="-880.3" font-family="Times,serif" font-size="14.00">Grade :integer</text>
<text text-anchor="start" x="610" y="-865.3" font-family="Times,serif" font-size="14.00">Date :character varying</text>
<text text-anchor="start" x="610" y="-850.3" font-family="Times,serif" font-size="14.00">created_at :timestamp without time zone</text>
<text text-anchor="start" x="610" y="-835.3" font-family="Times,serif" font-size="14.00">updated_at :timestamp without time zone</text>
<text text-anchor="start" x="610" y="-820.3" font-family="Times,serif" font-size="14.00">student_id :bigint</text>
<text text-anchor="start" x="610" y="-805.3" font-family="Times,serif" font-size="14.00">subject_id :bigint</text>
</g>
<!-- Subject -->
<g id="node6" class="node">
<title>Subject</title>
<path fill="none" stroke="black" d="M345,-587C345,-587 636,-587 636,-587 642,-587 648,-593 648,-599 648,-599 648,-741 648,-741 648,-747 642,-753 636,-753 636,-753 345,-753 345,-753 339,-753 333,-747 333,-741 333,-741 333,-599 333,-599 333,-593 339,-587 345,-587"/>
<text text-anchor="middle" x="490.5" y="-737.8" font-family="Times,serif" font-size="14.00">Subject</text>
<polyline fill="none" stroke="black" points="333,-730 648,-730 "/>
<text text-anchor="start" x="341" y="-714.8" font-family="Times,serif" font-size="14.00">id :bigint</text>
<text text-anchor="start" x="341" y="-699.8" font-family="Times,serif" font-size="14.00">SubjectId :integer</text>
<text text-anchor="start" x="341" y="-684.8" font-family="Times,serif" font-size="14.00">Description :text</text>
<text text-anchor="start" x="341" y="-669.8" font-family="Times,serif" font-size="14.00">MaxCapacity :integer</text>
<text text-anchor="start" x="341" y="-654.8" font-family="Times,serif" font-size="14.00">created_at :timestamp without time zone</text>
<text text-anchor="start" x="341" y="-639.8" font-family="Times,serif" font-size="14.00">updated_at :timestamp without time zone</text>
<text text-anchor="start" x="341" y="-624.8" font-family="Times,serif" font-size="14.00">teacher_id :bigint</text>
<text text-anchor="start" x="341" y="-609.8" font-family="Times,serif" font-size="14.00">trainer_id :bigint</text>
<text text-anchor="start" x="341" y="-594.8" font-family="Times,serif" font-size="14.00">class_type_id :bigint</text>
</g>
<!-- Grade&#45;&gt;Subject -->
<g id="edge7" class="edge">
<title>Grade&#45;&gt;Subject</title>
<path fill="none" stroke="#7860c2" d="M651.52,-791.32C637.49,-780.83 623.05,-770.04 608.85,-759.43"/>
<polygon fill="#7860c2" stroke="#7860c2" points="651.71,-791.45 657.02,-801.05 655.71,-794.45 659.72,-797.44 659.72,-797.44 659.72,-797.44 655.71,-794.45 662.41,-793.84 651.71,-791.45 651.71,-791.45"/>
<polygon fill="#7860c2" stroke="#7860c2" points="608.53,-759.2 603.22,-749.61 604.53,-756.2 600.52,-753.21 600.52,-753.21 600.52,-753.21 604.53,-756.2 597.83,-756.82 608.53,-759.2 608.53,-759.2"/>
</g>
<!-- Student -->
<g id="node12" class="node">
<title>Student</title>
<path fill="none" stroke="black" d="M977,-143.5C977,-143.5 1268,-143.5 1268,-143.5 1274,-143.5 1280,-149.5 1280,-155.5 1280,-155.5 1280,-312.5 1280,-312.5 1280,-318.5 1274,-324.5 1268,-324.5 1268,-324.5 977,-324.5 977,-324.5 971,-324.5 965,-318.5 965,-312.5 965,-312.5 965,-155.5 965,-155.5 965,-149.5 971,-143.5 977,-143.5"/>
<text text-anchor="middle" x="1122.5" y="-309.3" font-family="Times,serif" font-size="14.00">Student</text>
<polyline fill="none" stroke="black" points="965,-301.5 1280,-301.5 "/>
<text text-anchor="start" x="973" y="-286.3" font-family="Times,serif" font-size="14.00">id :bigint</text>
<text text-anchor="start" x="973" y="-271.3" font-family="Times,serif" font-size="14.00">StudentId :integer</text>
<text text-anchor="start" x="973" y="-256.3" font-family="Times,serif" font-size="14.00">FirstName :character varying</text>
<text text-anchor="start" x="973" y="-241.3" font-family="Times,serif" font-size="14.00">SecondName :character varying</text>
<text text-anchor="start" x="973" y="-226.3" font-family="Times,serif" font-size="14.00">DateOfBirth :character varying</text>
<text text-anchor="start" x="973" y="-211.3" font-family="Times,serif" font-size="14.00">created_at :timestamp without time zone</text>
<text text-anchor="start" x="973" y="-196.3" font-family="Times,serif" font-size="14.00">updated_at :timestamp without time zone</text>
<text text-anchor="start" x="973" y="-181.3" font-family="Times,serif" font-size="14.00">password_digest :character varying</text>
<text text-anchor="start" x="973" y="-166.3" font-family="Times,serif" font-size="14.00">token :character varying</text>
<text text-anchor="start" x="973" y="-151.3" font-family="Times,serif" font-size="14.00">class_list_id :bigint</text>
</g>
<!-- Grade&#45;&gt;Student -->
<g id="edge6" class="edge">
<title>Grade&#45;&gt;Student</title>
<path fill="none" stroke="#582406" d="M926.45,-796.91C965.89,-782.26 987.21,-791.48 1009.5,-761 1114.96,-616.83 993.31,-530.88 1048.5,-361 1051.44,-351.96 1055.1,-342.86 1059.22,-333.92"/>
<polygon fill="#582406" stroke="#582406" points="926.45,-796.91 915.49,-796.5 921.82,-798.79 917.18,-800.67 917.18,-800.67 917.18,-800.67 921.82,-798.79 918.87,-804.84 926.45,-796.91 926.45,-796.91"/>
<polygon fill="#582406" stroke="#582406" points="1059.33,-333.69 1067.71,-326.62 1061.49,-329.18 1063.65,-324.67 1063.65,-324.67 1063.65,-324.67 1061.49,-329.18 1059.6,-322.72 1059.33,-333.69 1059.33,-333.69"/>
</g>
<!-- Message -->
<g id="node5" class="node">
<title>Message</title>
<path fill="none" stroke="black" d="M1403,-579.5C1403,-579.5 1694,-579.5 1694,-579.5 1700,-579.5 1706,-585.5 1706,-591.5 1706,-591.5 1706,-748.5 1706,-748.5 1706,-754.5 1700,-760.5 1694,-760.5 1694,-760.5 1403,-760.5 1403,-760.5 1397,-760.5 1391,-754.5 1391,-748.5 1391,-748.5 1391,-591.5 1391,-591.5 1391,-585.5 1397,-579.5 1403,-579.5"/>
<text text-anchor="middle" x="1548.5" y="-745.3" font-family="Times,serif" font-size="14.00">Message</text>
<polyline fill="none" stroke="black" points="1391,-737.5 1706,-737.5 "/>
<text text-anchor="start" x="1399" y="-722.3" font-family="Times,serif" font-size="14.00">id :bigint</text>
<text text-anchor="start" x="1399" y="-707.3" font-family="Times,serif" font-size="14.00">MessageId :integer</text>
<text text-anchor="start" x="1399" y="-692.3" font-family="Times,serif" font-size="14.00">From :character varying</text>
<text text-anchor="start" x="1399" y="-677.3" font-family="Times,serif" font-size="14.00">To :character varying</text>
<text text-anchor="start" x="1399" y="-662.3" font-family="Times,serif" font-size="14.00">Title :character varying</text>
<text text-anchor="start" x="1399" y="-647.3" font-family="Times,serif" font-size="14.00">Text :text</text>
<text text-anchor="start" x="1399" y="-632.3" font-family="Times,serif" font-size="14.00">Date :character varying</text>
<text text-anchor="start" x="1399" y="-617.3" font-family="Times,serif" font-size="14.00">created_at :timestamp without time zone</text>
<text text-anchor="start" x="1399" y="-602.3" font-family="Times,serif" font-size="14.00">updated_at :timestamp without time zone</text>
<text text-anchor="start" x="1399" y="-587.3" font-family="Times,serif" font-size="14.00">email_id :bigint</text>
</g>
<!-- Message&#45;&gt;Email -->
<g id="edge8" class="edge">
<title>Message&#45;&gt;Email</title>
<path fill="none" stroke="#2788a2" d="M1548.5,-569.16C1548.5,-558.7 1548.5,-548.14 1548.5,-537.87"/>
<polygon fill="#2788a2" stroke="#2788a2" points="1548.5,-569.27 1544,-579.27 1548.5,-574.27 1548.5,-579.27 1548.5,-579.27 1548.5,-579.27 1548.5,-574.27 1553,-579.27 1548.5,-569.27 1548.5,-569.27"/>
<polygon fill="#2788a2" stroke="#2788a2" points="1548.5,-537.71 1553,-527.71 1548.5,-532.71 1548.5,-527.71 1548.5,-527.71 1548.5,-527.71 1548.5,-532.71 1544,-527.71 1548.5,-537.71 1548.5,-537.71"/>
</g>
<!-- Subject&#45;&gt;Teacher -->
<g id="edge10" class="edge">
<title>Subject&#45;&gt;Teacher</title>
<path fill="none" stroke="#ac87fb" d="M496.92,-576.49C497.47,-568.59 498.03,-560.58 498.58,-552.63"/>
<polygon fill="#ac87fb" stroke="#ac87fb" points="496.91,-576.75 491.72,-586.41 496.56,-581.74 496.21,-586.72 496.21,-586.72 496.21,-586.72 496.56,-581.74 500.7,-587.04 496.91,-576.75 496.91,-576.75"/>
<polygon fill="#ac87fb" stroke="#ac87fb" points="498.58,-552.58 503.77,-542.92 498.93,-547.6 499.28,-542.61 499.28,-542.61 499.28,-542.61 498.93,-547.6 494.79,-542.3 498.58,-552.58 498.58,-552.58"/>
</g>
<!-- Subject&#45;&gt;Trainer -->
<g id="edge11" class="edge">
<title>Subject&#45;&gt;Trainer</title>
<path fill="none" stroke="#3cdf67" d="M631.73,-581.34C653.49,-567.84 675.95,-553.89 697.69,-540.4"/>
<polygon fill="#3cdf67" stroke="#3cdf67" points="631.55,-581.45 620.68,-582.9 627.3,-584.09 623.06,-586.72 623.06,-586.72 623.06,-586.72 627.3,-584.09 625.43,-590.55 631.55,-581.45 631.55,-581.45"/>
<polygon fill="#3cdf67" stroke="#3cdf67" points="697.82,-540.32 708.69,-538.87 702.06,-537.68 706.31,-535.05 706.31,-535.05 706.31,-535.05 702.06,-537.68 703.94,-531.22 697.82,-540.32 697.82,-540.32"/>
</g>
<!-- Subject&#45;&gt;ClassType -->
<g id="edge9" class="edge">
<title>Subject&#45;&gt;ClassType</title>
<path fill="none" stroke="#317b22" d="M360.81,-580.91C325.99,-557.26 289.23,-532.28 257.52,-510.75"/>
<polygon fill="#317b22" stroke="#317b22" points="361.1,-581.1 366.84,-590.45 365.23,-583.91 369.37,-586.72 369.37,-586.72 369.37,-586.72 365.23,-583.91 371.9,-583 361.1,-581.1 361.1,-581.1"/>
<polygon fill="#317b22" stroke="#317b22" points="257.41,-510.68 251.67,-501.33 253.28,-507.87 249.14,-505.06 249.14,-505.06 249.14,-505.06 253.28,-507.87 246.61,-508.78 257.41,-510.68 257.41,-510.68"/>
</g>
<!-- Certificate -->
<g id="node8" class="node">
<title>Certificate</title>
<path fill="none" stroke="black" d="M1070,-376.5C1070,-376.5 1361,-376.5 1361,-376.5 1367,-376.5 1373,-382.5 1373,-388.5 1373,-388.5 1373,-515.5 1373,-515.5 1373,-521.5 1367,-527.5 1361,-527.5 1361,-527.5 1070,-527.5 1070,-527.5 1064,-527.5 1058,-521.5 1058,-515.5 1058,-515.5 1058,-388.5 1058,-388.5 1058,-382.5 1064,-376.5 1070,-376.5"/>
<text text-anchor="middle" x="1215.5" y="-512.3" font-family="Times,serif" font-size="14.00">Certificate</text>
<polyline fill="none" stroke="black" points="1058,-504.5 1373,-504.5 "/>
<text text-anchor="start" x="1066" y="-489.3" font-family="Times,serif" font-size="14.00">id :bigint</text>
<text text-anchor="start" x="1066" y="-474.3" font-family="Times,serif" font-size="14.00">CertificateId :integer</text>
<text text-anchor="start" x="1066" y="-459.3" font-family="Times,serif" font-size="14.00">Name :character varying</text>
<text text-anchor="start" x="1066" y="-444.3" font-family="Times,serif" font-size="14.00">Grade :integer</text>
<text text-anchor="start" x="1066" y="-429.3" font-family="Times,serif" font-size="14.00">Description :text</text>
<text text-anchor="start" x="1066" y="-414.3" font-family="Times,serif" font-size="14.00">created_at :timestamp without time zone</text>
<text text-anchor="start" x="1066" y="-399.3" font-family="Times,serif" font-size="14.00">updated_at :timestamp without time zone</text>
<text text-anchor="start" x="1066" y="-384.3" font-family="Times,serif" font-size="14.00">student_id :bigint</text>
</g>
<!-- Certificate&#45;&gt;Student -->
<g id="edge12" class="edge">
<title>Certificate&#45;&gt;Student</title>
<path fill="none" stroke="#2551d1" d="M1179.27,-366.85C1174.6,-356.01 1169.79,-344.83 1165.03,-333.77"/>
<polygon fill="#2551d1" stroke="#2551d1" points="1179.41,-367.18 1179.23,-378.14 1181.39,-371.77 1183.36,-376.36 1183.36,-376.36 1183.36,-376.36 1181.39,-371.77 1187.5,-374.58 1179.41,-367.18 1179.41,-367.18"/>
<polygon fill="#2551d1" stroke="#2551d1" points="1165,-333.71 1165.18,-322.75 1163.02,-329.12 1161.05,-324.53 1161.05,-324.53 1161.05,-324.53 1163.02,-329.12 1156.91,-326.31 1165,-333.71 1165,-333.71"/>
</g>
<!-- Email&#45;&gt;Student -->
<g id="edge14" class="edge">
<title>Email&#45;&gt;Student</title>
<path fill="none" stroke="#777372" d="M1402.24,-371.73C1395.24,-368.08 1388.3,-364.49 1381.5,-361 1351.83,-345.8 1320.05,-329.97 1289.27,-314.87"/>
<polygon fill="#777372" stroke="#777372" points="1402.27,-371.75 1409.04,-380.37 1406.7,-374.06 1411.13,-376.38 1411.13,-376.38 1411.13,-376.38 1406.7,-374.06 1413.22,-372.4 1402.27,-371.75 1402.27,-371.75"/>
<polygon fill="#777372" stroke="#777372" points="1289.17,-314.82 1282.16,-306.38 1284.68,-312.62 1280.18,-310.42 1280.18,-310.42 1280.18,-310.42 1284.68,-312.62 1278.21,-314.46 1289.17,-314.82 1289.17,-314.82"/>
</g>
<!-- Employer -->
<g id="node16" class="node">
<title>Employer</title>
<ellipse fill="none" stroke="black" cx="1548.5" cy="-234" rx="55.79" ry="18"/>
<text text-anchor="middle" x="1548.5" y="-230.3" font-family="Times,serif" font-size="14.00">Employer</text>
</g>
<!-- Email&#45;&gt;Employer -->
<g id="edge13" class="edge">
<title>Email&#45;&gt;Employer</title>
<path fill="none" stroke="#2f21d0" d="M1548.5,-366.3C1548.5,-329.29 1548.5,-288.44 1548.5,-262.29"/>
<polygon fill="#2f21d0" stroke="#2f21d0" points="1548.5,-366.36 1544,-376.36 1548.5,-371.36 1548.5,-376.36 1548.5,-376.36 1548.5,-376.36 1548.5,-371.36 1553,-376.36 1548.5,-366.36 1548.5,-366.36"/>
<polygon fill="#2f21d0" stroke="#2f21d0" points="1548.5,-262.04 1553,-252.04 1548.5,-257.04 1548.5,-252.04 1548.5,-252.04 1548.5,-252.04 1548.5,-257.04 1544,-252.04 1548.5,-262.04 1548.5,-262.04"/>
</g>
<!-- ClassRoom -->
<g id="node13" class="node">
<title>ClassRoom</title>
<path fill="none" stroke="black" d="M27,-151C27,-151 318,-151 318,-151 324,-151 330,-157 330,-163 330,-163 330,-305 330,-305 330,-311 324,-317 318,-317 318,-317 27,-317 27,-317 21,-317 15,-311 15,-305 15,-305 15,-163 15,-163 15,-157 21,-151 27,-151"/>
<text text-anchor="middle" x="172.5" y="-301.8" font-family="Times,serif" font-size="14.00">ClassRoom</text>
<polyline fill="none" stroke="black" points="15,-294 330,-294 "/>
<text text-anchor="start" x="23" y="-278.8" font-family="Times,serif" font-size="14.00">id :bigint</text>
<text text-anchor="start" x="23" y="-263.8" font-family="Times,serif" font-size="14.00">ClassRoomId :integer</text>
<text text-anchor="start" x="23" y="-248.8" font-family="Times,serif" font-size="14.00">RoomNumber :integer</text>
<text text-anchor="start" x="23" y="-233.8" font-family="Times,serif" font-size="14.00">Capacity :integer</text>
<text text-anchor="start" x="23" y="-218.8" font-family="Times,serif" font-size="14.00">RoomType :character varying</text>
<text text-anchor="start" x="23" y="-203.8" font-family="Times,serif" font-size="14.00">Facilities :character varying</text>
<text text-anchor="start" x="23" y="-188.8" font-family="Times,serif" font-size="14.00">created_at :timestamp without time zone</text>
<text text-anchor="start" x="23" y="-173.8" font-family="Times,serif" font-size="14.00">updated_at :timestamp without time zone</text>
<text text-anchor="start" x="23" y="-158.8" font-family="Times,serif" font-size="14.00">class_type_id :bigint</text>
</g>
<!-- ClassType&#45;&gt;ClassRoom -->
<g id="edge16" class="edge">
<title>ClassType&#45;&gt;ClassRoom</title>
<path fill="none" stroke="#71d3fe" d="M172.5,-388.98C172.5,-369.79 172.5,-348.23 172.5,-327.46"/>
<polygon fill="#71d3fe" stroke="#71d3fe" points="172.5,-388.99 168,-398.99 172.5,-393.99 172.5,-398.99 172.5,-398.99 172.5,-398.99 172.5,-393.99 177,-398.99 172.5,-388.99 172.5,-388.99"/>
<polygon fill="#71d3fe" stroke="#71d3fe" points="172.5,-327.33 177,-317.33 172.5,-322.33 172.5,-317.33 172.5,-317.33 172.5,-317.33 172.5,-322.33 168,-317.33 172.5,-327.33 172.5,-327.33"/>
</g>
<!-- ClassList -->
<g id="node14" class="node">
<title>ClassList</title>
<path fill="none" stroke="black" d="M761,-0.5C761,-0.5 1052,-0.5 1052,-0.5 1058,-0.5 1064,-6.5 1064,-12.5 1064,-12.5 1064,-94.5 1064,-94.5 1064,-100.5 1058,-106.5 1052,-106.5 1052,-106.5 761,-106.5 761,-106.5 755,-106.5 749,-100.5 749,-94.5 749,-94.5 749,-12.5 749,-12.5 749,-6.5 755,-0.5 761,-0.5"/>
<text text-anchor="middle" x="906.5" y="-91.3" font-family="Times,serif" font-size="14.00">ClassList</text>
<polyline fill="none" stroke="black" points="749,-83.5 1064,-83.5 "/>
<text text-anchor="start" x="757" y="-68.3" font-family="Times,serif" font-size="14.00">id :bigint</text>
<text text-anchor="start" x="757" y="-53.3" font-family="Times,serif" font-size="14.00">ClassListId :integer</text>
<text text-anchor="start" x="757" y="-38.3" font-family="Times,serif" font-size="14.00">created_at :timestamp without time zone</text>
<text text-anchor="start" x="757" y="-23.3" font-family="Times,serif" font-size="14.00">updated_at :timestamp without time zone</text>
<text text-anchor="start" x="757" y="-8.3" font-family="Times,serif" font-size="14.00">class_type_id :bigint</text>
</g>
<!-- ClassType&#45;&gt;ClassList -->
<g id="edge15" class="edge">
<title>ClassType&#45;&gt;ClassList</title>
<path fill="none" stroke="#4ec510" d="M277.52,-394.02C297.75,-383.05 318.78,-371.67 338.5,-361 499.71,-273.8 686.8,-172.9 800.88,-111.41"/>
<polygon fill="#4ec510" stroke="#4ec510" points="277.39,-394.09 266.46,-394.9 273,-396.47 268.6,-398.86 268.6,-398.86 268.6,-398.86 273,-396.47 270.75,-402.81 277.39,-394.09 277.39,-394.09"/>
<polygon fill="#4ec510" stroke="#4ec510" points="801.18,-111.25 812.12,-110.47 805.59,-108.88 809.99,-106.5 809.99,-106.5 809.99,-106.5 805.59,-108.88 807.85,-102.54 801.18,-111.25 801.18,-111.25"/>
</g>
<!-- Student&#45;&gt;ClassList -->
<g id="edge17" class="edge">
<title>Student&#45;&gt;ClassList</title>
<path fill="none" stroke="#f356b3" d="M1006.32,-136.99C996.47,-128.85 986.71,-120.79 977.38,-113.07"/>
<polygon fill="#f356b3" stroke="#f356b3" points="1006.48,-137.12 1011.32,-146.96 1010.33,-140.3 1014.18,-143.49 1014.18,-143.49 1014.18,-143.49 1010.33,-140.3 1017.05,-140.02 1006.48,-137.12 1006.48,-137.12"/>
<polygon fill="#f356b3" stroke="#f356b3" points="977.35,-113.05 972.51,-103.21 973.49,-109.86 969.64,-106.68 969.64,-106.68 969.64,-106.68 973.49,-109.86 966.77,-110.15 977.35,-113.05 977.35,-113.05"/>
</g>
<!-- ApplicationRecord -->
<g id="node15" class="node">
<title>ApplicationRecord</title>
<ellipse fill="none" stroke="black" cx="1030.5" cy="-873" rx="95.58" ry="18"/>
<text text-anchor="middle" x="1030.5" y="-869.3" font-family="Times,serif" font-size="14.00">ApplicationRecord</text>
</g>
</g>
</svg>
